<svg xmlns="http://www.w3.org/2000/svg" xmlns:xlink="http://www.w3.org/1999/xlink" version="1.1" x="0px" y="0px" width="100px" height="100px" viewBox="0 0 100 100" enable-background="new 0 0 100 100" xml:space="preserve">
<g id="Captions">
</g>
<g id="Your_Icon">
	<path d="M60.71,57.334c0,0-2.023,5.293-3.118,11.147C69.608,63.961,81.636,53.749,85.2,51.39   c-2.31,2.533-9.501,11.375-22.904,21.386c0.778-0.044,1.566-0.116,2.358-0.231c31.825-1.129,35.32-31.684,35.32-31.684   C76.987,36.554,67.553,43.525,60.71,57.334z"/>
	<path d="M18.271,43.532c4.536,7.4,13.036,24.65,31.076,32.542c0.791-5.734,0.287-11.017,0.287-11.017   C46.25,20.529,2.715,16.829,2.715,16.829c-9.68,34.42,7.348,56.052,34.162,65.31c0,0,2.949,0.775,7.206,1.044   C25.709,67.605,19.307,49.183,18.271,43.532z"/>
</g>
<g id="Layer_4" display="none">
</g>
<g id="working_layer" display="none">
</g>
</svg>